<!DOCTYPE svg PUBLIC "-//W3C//DTD SVG 1.1//EN" "http://www.w3.org/Graphics/SVG/1.1/DTD/svg11.dtd">
<!-- Uploaded to: SVG Repo, www.svgrepo.com, Transformed by: SVG Repo Mixer Tools -->
<svg fill="#ff4013" height="800px" width="800px" version="1.1" id="Layer_1" xmlns="http://www.w3.org/2000/svg" xmlns:xlink="http://www.w3.org/1999/xlink" viewBox="0 0 512 512" xml:space="preserve" stroke="#ff4013">
<g id="SVGRepo_bgCarrier" stroke-width="0"/>
<g id="SVGRepo_tracerCarrier" stroke-linecap="round" stroke-linejoin="round"/>
<g id="SVGRepo_iconCarrier"> <g> <g> <path d="M496.323,308.225c-14.143,0-24.355,0-39.091,0c-8.181-1.664-14.338-8.896-14.338-17.568 c0-9.902,8.026-17.929,17.929-17.929h30.019v-10.979c0-22.375-18.139-40.514-40.514-40.514h-45.605l-43.971-114.17 c-2.557-6.641-8.94-11.023-16.057-11.023H234.838H58.262c-8.122,0-15.139,5.68-16.83,13.625 C24.089,190.76,15.526,241.562,15.526,241.562v66.67C6.938,308.314,0,315.295,0,323.902v21.18c0,8.659,7.019,15.677,15.677,15.677 H30.26c-1.081-48.606,38.238-87.724,85.75-87.724c47.31,0,85.799,38.489,85.799,85.799h70.341 c0-47.31,38.489-85.799,85.799-85.799c28.395,0,53.599,13.874,69.225,35.189c10.409,14.199,16.574,31.695,16.574,50.61 c0,0.646-0.035,1.283-0.049,1.925h52.624c8.659,0,15.677-7.02,15.677-15.677v-21.18C512,315.243,504.98,308.225,496.323,308.225z M217.631,219.459H53.249l18.943-89.001h145.439V219.459z M252.045,219.459v-89.001h80.839l34.277,89.001H252.045z"/> </g> </g> <g> <g> <path d="M116.01,301.713c-31.547,0-57.122,25.574-57.122,57.122c0,31.547,25.574,57.122,57.122,57.122 s57.122-25.574,57.122-57.122S147.556,301.713,116.01,301.713z M116.01,381.767c-12.665,0-22.932-10.268-22.932-22.932 c0-12.664,10.268-22.932,22.932-22.932c12.664,0,22.932,10.268,22.932,22.932C138.941,371.499,128.675,381.767,116.01,381.767z"/> </g> </g> <g> <g> <path d="M357.949,301.713c-31.547,0-57.122,25.574-57.122,57.122c0,31.547,25.574,57.122,57.122,57.122 c31.547,0,57.122-25.574,57.122-57.122C415.07,327.287,389.496,301.713,357.949,301.713z M357.949,381.767 c-12.665,0-22.932-10.268-22.932-22.932c0-12.664,10.266-22.932,22.932-22.932s22.932,10.268,22.932,22.932 C380.881,371.499,370.614,381.767,357.949,381.767z"/> </g> </g> </g>
</svg>